<svg xmlns="http://www.w3.org/2000/svg" xmlns:xlink="http://www.w3.org/1999/xlink" id="svg" version="1.1" viewBox="23.67 31.17 103.5 105.67"><g id="svgg"><path id="path0" d="M68.000 40.351 C 66.854 40.427,65.542 40.563,65.083 40.654 C 64.625 40.745,63.800 40.892,63.250 40.982 C 62.268 41.141,60.817 41.455,59.333 41.830 C 58.554 42.028,55.998 42.893,55.417 43.156 C 48.502 46.289,45.032 49.239,40.938 55.463 C 37.187 61.165,34.836 67.281,33.908 73.750 C 33.776 74.667,33.635 75.505,33.594 75.613 C 32.994 77.195,33.501 87.314,34.399 91.667 C 34.635 92.806,34.776 93.416,35.330 95.667 C 35.625 96.865,37.004 100.840,37.437 101.740 C 37.655 102.192,37.833 102.626,37.833 102.704 C 37.833 103.082,41.047 109.185,41.715 110.075 C 41.787 110.171,42.234 110.850,42.708 111.583 C 43.182 112.317,43.630 112.992,43.704 113.083 C 43.778 113.175,44.227 113.775,44.701 114.417 C 45.175 115.058,46.017 116.102,46.573 116.737 C 48.057 118.431,49.614 119.903,51.760 121.639 C 53.485 123.035,56.871 124.944,59.333 125.907 C 59.746 126.069,60.198 126.259,60.339 126.329 C 60.479 126.400,60.852 126.514,61.167 126.583 C 61.481 126.652,61.854 126.768,61.995 126.840 C 62.768 127.238,66.562 127.939,69.210 128.173 C 71.121 128.343,79.146 128.134,79.517 127.906 C 79.573 127.872,80.510 127.727,81.601 127.585 C 84.755 127.174,88.976 126.331,90.333 125.842 C 90.563 125.759,91.313 125.532,92.000 125.337 C 92.688 125.142,93.380 124.911,93.539 124.825 C 93.699 124.738,93.912 124.667,94.014 124.667 C 94.116 124.667,94.436 124.558,94.725 124.424 C 95.014 124.291,95.625 124.037,96.083 123.859 C 97.430 123.338,98.823 122.654,100.281 121.800 C 101.031 121.360,101.718 121.000,101.809 121.000 C 101.899 121.000,101.997 120.944,102.028 120.875 C 102.058 120.806,102.533 120.452,103.083 120.088 C 103.633 119.724,104.493 119.087,104.994 118.671 C 105.495 118.256,106.095 117.768,106.328 117.586 C 109.046 115.461,113.207 110.631,115.185 107.306 C 121.419 96.820,119.965 83.511,111.844 76.741 C 110.463 75.589,110.540 75.647,109.750 75.170 C 109.383 74.949,109.046 74.726,109.000 74.675 C 108.954 74.625,108.654 74.443,108.333 74.271 C 108.012 74.100,107.375 73.759,106.917 73.514 C 106.458 73.270,105.746 72.928,105.333 72.755 C 104.921 72.582,104.269 72.304,103.884 72.137 C 103.500 71.970,103.081 71.833,102.954 71.833 C 102.826 71.833,102.666 71.777,102.597 71.708 C 102.446 71.557,101.288 71.258,99.167 70.823 C 94.947 69.957,90.233 69.985,84.917 70.907 C 83.726 71.113,83.036 71.270,81.000 71.796 C 80.200 72.003,77.368 72.975,76.725 73.264 C 76.436 73.394,76.157 73.500,76.104 73.500 C 75.822 73.500,69.890 76.388,68.583 77.162 C 68.125 77.433,67.525 77.769,67.250 77.908 C 66.688 78.191,66.125 78.537,66.000 78.675 C 65.954 78.726,65.617 78.946,65.250 79.163 C 64.443 79.642,60.929 82.248,60.533 82.661 C 60.009 83.208,58.049 84.454,57.313 84.708 C 55.046 85.489,54.430 85.498,52.434 84.780 C 51.662 84.502,50.379 83.114,49.912 82.049 C 49.678 81.518,49.412 80.948,49.320 80.782 C 48.705 79.679,48.778 76.022,49.456 73.917 C 50.169 71.705,52.895 68.000,53.810 68.000 C 53.899 68.000,53.997 67.944,54.028 67.875 C 54.304 67.253,58.440 66.169,60.543 66.167 C 61.866 66.166,66.283 66.932,67.250 67.329 C 67.742 67.532,70.714 68.504,70.970 68.547 C 71.161 68.578,72.102 67.199,71.967 67.086 C 71.554 66.744,68.081 65.596,66.167 65.169 C 65.296 64.975,64.321 64.748,64.000 64.664 C 61.980 64.137,55.121 64.131,53.790 64.656 C 53.584 64.737,52.897 64.969,52.261 65.172 C 45.652 67.283,42.438 75.504,45.078 83.544 C 45.983 86.297,46.576 87.512,48.068 89.659 C 50.200 92.731,53.782 95.715,56.667 96.826 C 56.987 96.949,57.475 97.146,57.750 97.264 C 61.552 98.894,69.877 99.445,74.000 98.339 C 76.061 97.786,76.733 97.582,77.989 97.128 C 78.761 96.848,79.903 96.367,80.526 96.059 C 81.148 95.752,81.735 95.500,81.829 95.500 C 81.923 95.500,82.000 95.425,82.000 95.333 C 82.000 95.242,82.075 95.167,82.166 95.167 C 82.258 95.167,82.989 94.801,83.791 94.353 C 84.594 93.906,85.512 93.399,85.833 93.228 C 86.154 93.057,86.454 92.875,86.500 92.824 C 86.546 92.773,87.221 92.337,88.000 91.855 C 88.779 91.373,89.754 90.739,90.167 90.445 C 90.579 90.152,91.667 89.392,92.583 88.756 C 93.500 88.121,94.560 87.372,94.939 87.092 C 95.318 86.812,95.793 86.471,95.995 86.333 C 96.196 86.196,97.140 85.521,98.092 84.833 C 101.676 82.245,102.360 81.789,103.611 81.153 C 104.317 80.794,105.016 80.500,105.164 80.500 C 105.312 80.500,105.527 80.406,105.642 80.292 C 106.064 79.869,109.805 80.016,110.583 80.485 C 111.512 81.045,112.549 82.060,113.494 83.333 C 118.595 90.210,115.938 96.567,106.250 100.666 C 105.792 100.860,105.267 101.083,105.083 101.161 C 104.900 101.240,104.300 101.471,103.750 101.674 C 103.200 101.878,102.600 102.106,102.417 102.181 C 102.233 102.256,101.783 102.402,101.417 102.504 C 101.050 102.607,100.375 102.801,99.917 102.935 C 98.454 103.365,96.742 103.802,95.731 104.004 C 95.192 104.112,94.225 104.306,93.583 104.435 C 92.942 104.563,91.892 104.743,91.250 104.835 C 90.608 104.926,89.671 105.078,89.167 105.172 C 84.220 106.097,67.779 106.832,63.250 106.332 C 60.067 105.980,58.526 105.715,56.500 105.171 C 54.544 104.645,53.381 104.296,53.127 104.158 C 52.968 104.071,52.754 104.000,52.652 104.000 C 52.550 104.000,52.231 103.892,51.942 103.760 C 51.653 103.629,50.929 103.322,50.333 103.078 C 38.610 98.286,33.520 88.917,36.575 77.750 C 36.725 77.200,36.914 76.497,36.994 76.189 C 37.874 72.808,41.238 66.309,43.493 63.632 C 45.060 61.772,49.161 58.667,50.052 58.667 C 50.166 58.667,50.407 58.565,50.588 58.442 C 50.997 58.162,53.098 57.500,53.578 57.500 C 53.773 57.500,54.014 57.420,54.112 57.322 C 54.893 56.540,63.907 57.244,67.000 58.329 C 67.229 58.409,67.979 58.636,68.667 58.833 C 69.354 59.029,70.067 59.252,70.250 59.328 C 70.433 59.403,71.783 59.851,73.250 60.322 C 74.717 60.793,76.067 61.244,76.250 61.323 C 76.433 61.402,77.071 61.634,77.667 61.837 C 79.373 62.418,81.552 63.188,81.917 63.339 C 82.100 63.415,82.813 63.639,83.500 63.838 C 84.188 64.038,85.313 64.377,86.000 64.593 C 91.338 66.272,93.166 66.583,97.667 66.583 C 101.568 66.583,102.084 66.503,105.000 65.446 C 108.182 64.292,111.913 61.494,113.828 58.824 C 115.497 56.497,117.582 52.620,118.662 49.833 C 118.964 49.054,119.277 48.267,119.357 48.083 C 120.255 46.035,120.221 45.737,119.114 45.903 C 118.465 46.001,118.379 46.077,117.924 46.962 C 114.969 52.715,110.778 53.788,104.250 50.464 C 97.527 47.041,94.331 45.456,92.917 44.843 C 92.000 44.445,90.950 43.989,90.583 43.829 C 90.217 43.670,89.129 43.260,88.167 42.920 C 87.204 42.579,86.267 42.238,86.083 42.162 C 85.192 41.792,82.918 41.221,80.167 40.676 C 77.755 40.198,72.466 40.057,68.000 40.351 " stroke="none" fill="#040404" fill-rule="evenodd"/><path id="path1" d="M23.667 84.000 L 23.667 136.833 75.417 136.833 L 127.167 136.833 127.167 84.167 C 127.167 37.463,127.138 31.500,126.917 31.500 C 126.779 31.500,126.667 31.425,126.667 31.333 C 126.667 31.223,109.389 31.167,75.167 31.167 L 23.667 31.167 23.667 84.000 M80.333 40.470 C 82.780 40.912,86.838 42.088,88.750 42.910 C 89.025 43.028,89.625 43.259,90.083 43.424 C 90.542 43.589,90.992 43.777,91.083 43.842 C 91.175 43.906,91.436 44.016,91.664 44.086 C 92.529 44.353,98.586 47.310,103.417 49.824 C 110.682 53.606,114.999 52.671,117.835 46.699 C 118.265 45.792,118.475 45.673,119.644 45.669 C 120.498 45.666,120.497 45.605,119.679 47.819 C 118.475 51.078,117.021 54.169,115.517 56.672 C 110.665 64.743,102.515 68.269,92.750 66.522 C 89.751 65.986,86.267 64.999,81.083 63.219 C 76.258 61.562,69.683 59.355,68.750 59.080 C 68.292 58.944,67.579 58.730,67.167 58.602 C 66.754 58.475,65.854 58.247,65.167 58.096 C 64.479 57.945,63.578 57.747,63.165 57.655 C 59.801 56.913,54.173 57.206,51.564 58.260 C 50.385 58.735,49.755 59.015,49.285 59.272 C 49.030 59.412,48.655 59.614,48.452 59.722 C 44.776 61.671,41.041 66.496,38.685 72.341 C 38.557 72.658,38.313 73.231,38.143 73.616 C 37.973 74.000,37.833 74.417,37.833 74.541 C 37.833 74.665,37.767 74.838,37.685 74.925 C 37.542 75.078,37.225 76.091,36.722 78.000 C 34.749 85.494,36.498 92.454,41.571 97.292 C 42.922 98.581,45.968 100.814,46.786 101.116 C 46.950 101.176,47.346 101.387,47.667 101.584 C 50.370 103.243,55.966 105.041,60.875 105.828 C 63.861 106.307,79.097 106.372,79.846 105.909 C 79.908 105.870,81.188 105.761,82.688 105.665 C 84.189 105.570,85.867 105.421,86.417 105.333 C 86.967 105.245,88.317 105.053,89.417 104.905 C 91.660 104.604,96.810 103.607,98.083 103.228 C 98.542 103.092,99.217 102.899,99.583 102.800 C 102.345 102.055,105.232 100.972,107.583 99.799 C 108.802 99.192,110.675 98.120,111.083 97.798 C 114.164 95.363,115.264 93.845,115.771 91.329 C 116.246 88.971,115.320 85.992,113.294 83.366 C 109.757 78.779,106.377 78.994,99.250 84.260 C 98.242 85.005,96.329 86.373,95.000 87.299 C 93.671 88.225,92.508 89.046,92.417 89.124 C 90.063 91.128,81.325 96.132,78.167 97.285 C 68.082 100.968,56.816 99.188,50.580 92.925 C 48.813 91.151,46.000 87.273,46.000 86.612 C 46.000 86.555,45.815 86.113,45.589 85.630 C 43.951 82.121,43.492 76.290,44.606 73.135 C 47.653 64.504,55.798 61.913,68.417 65.561 C 68.875 65.693,69.700 65.963,70.250 66.160 C 70.800 66.357,71.400 66.563,71.583 66.617 C 72.292 66.825,72.316 66.974,71.794 67.937 C 71.222 68.993,71.398 68.977,69.144 68.181 C 64.163 66.421,58.316 65.974,55.841 67.164 C 54.041 68.028,53.496 68.374,52.686 69.161 C 50.523 71.267,49.585 73.281,49.059 76.953 C 48.769 78.976,49.942 82.478,51.328 83.727 C 53.797 85.952,56.999 85.404,60.917 82.088 C 62.182 81.017,66.960 77.667,67.223 77.667 C 67.268 77.667,67.856 77.344,68.528 76.949 C 70.153 75.995,73.829 74.202,75.917 73.345 C 76.100 73.270,76.475 73.116,76.750 73.004 C 81.823 70.934,87.688 69.901,93.500 70.053 C 96.772 70.139,97.456 70.214,100.083 70.784 C 107.524 72.397,113.975 77.045,116.870 82.880 C 124.121 97.496,114.796 115.819,95.833 124.214 C 91.661 126.062,83.784 127.778,76.834 128.354 C 71.070 128.832,63.760 128.032,60.558 126.573 C 60.269 126.441,59.917 126.333,59.776 126.333 C 59.635 126.333,59.478 126.267,59.428 126.185 C 59.378 126.104,59.136 125.987,58.891 125.925 C 53.479 124.567,44.913 116.474,40.625 108.667 C 40.398 108.254,39.967 107.470,39.666 106.924 C 33.529 95.792,31.475 80.574,34.583 69.273 C 34.712 68.802,34.934 67.994,35.076 67.478 C 35.935 64.348,38.206 59.257,39.852 56.773 C 40.209 56.235,40.500 55.766,40.500 55.730 C 40.500 55.614,42.033 53.445,42.901 52.333 C 48.142 45.621,55.231 41.843,65.250 40.424 C 69.050 39.886,77.236 39.911,80.333 40.470 " stroke="none" fill="#fbfbfb" fill-rule="evenodd"/><path id="path2" d="M68.833 40.163 C 68.146 40.220,69.421 40.234,71.667 40.194 C 73.912 40.154,75.781 40.094,75.819 40.060 C 75.929 39.965,70.218 40.049,68.833 40.163 M76.458 40.287 C 76.756 40.324,77.244 40.324,77.542 40.287 C 77.840 40.250,77.596 40.220,77.000 40.220 C 76.404 40.220,76.160 40.250,76.458 40.287 M66.542 40.448 C 66.702 40.490,66.965 40.490,67.125 40.448 C 67.285 40.406,67.154 40.372,66.833 40.372 C 66.512 40.372,66.381 40.406,66.542 40.448 M64.333 40.667 C 63.764 40.787,63.762 40.790,64.250 40.800 C 64.525 40.805,64.900 40.745,65.083 40.667 C 65.484 40.494,65.152 40.494,64.333 40.667 M61.583 41.167 C 61.122 41.284,61.116 41.295,61.500 41.311 C 61.729 41.321,62.029 41.256,62.167 41.167 C 62.450 40.983,62.304 40.983,61.583 41.167 M59.500 41.667 C 59.157 41.777,59.142 41.803,59.417 41.814 C 59.600 41.822,59.862 41.756,60.000 41.667 C 60.292 41.478,60.089 41.478,59.500 41.667 M115.240 50.542 L 114.750 51.083 115.292 50.594 C 115.590 50.325,115.833 50.081,115.833 50.052 C 115.833 49.923,115.696 50.037,115.240 50.542 M109.053 52.203 C 109.161 52.272,109.888 52.319,110.667 52.308 C 112.271 52.285,112.036 52.206,110.137 52.130 C 109.433 52.101,108.945 52.134,109.053 52.203 M115.230 56.708 C 114.657 57.682,114.619 57.765,114.911 57.417 C 115.250 57.013,115.542 56.500,115.432 56.500 C 115.389 56.500,115.298 56.594,115.230 56.708 M55.875 57.115 C 56.035 57.157,56.298 57.157,56.458 57.115 C 56.619 57.073,56.487 57.039,56.167 57.039 C 55.846 57.039,55.715 57.073,55.875 57.115 M54.105 57.299 C 54.060 57.371,54.281 57.400,54.595 57.364 C 54.909 57.327,55.167 57.268,55.167 57.232 C 55.167 57.106,54.186 57.168,54.105 57.299 M61.294 57.285 C 61.501 57.324,61.801 57.323,61.960 57.281 C 62.120 57.239,61.950 57.207,61.583 57.209 C 61.217 57.211,61.086 57.245,61.294 57.285 M64.500 57.833 C 65.070 58.016,65.508 58.016,65.083 57.833 C 64.900 57.755,64.600 57.692,64.417 57.695 C 64.149 57.699,64.165 57.726,64.500 57.833 M111.829 61.125 L 110.750 62.250 111.875 61.171 C 112.494 60.578,113.000 60.072,113.000 60.046 C 113.000 59.924,112.830 60.080,111.829 61.125 M43.566 63.542 C 42.836 64.384,42.619 64.667,42.704 64.667 C 42.753 64.667,43.070 64.329,43.408 63.917 C 44.034 63.153,44.158 62.859,43.566 63.542 M58.042 64.121 C 58.385 64.157,58.948 64.157,59.292 64.121 C 59.635 64.085,59.354 64.056,58.667 64.056 C 57.979 64.056,57.698 64.085,58.042 64.121 M55.792 64.287 C 56.090 64.324,56.577 64.324,56.875 64.287 C 57.173 64.250,56.929 64.220,56.333 64.220 C 55.737 64.220,55.494 64.250,55.792 64.287 M60.458 64.287 C 60.756 64.324,61.244 64.324,61.542 64.287 C 61.840 64.250,61.596 64.220,61.000 64.220 C 60.404 64.220,60.160 64.250,60.458 64.287 M63.917 64.667 C 64.100 64.745,64.400 64.808,64.583 64.805 C 64.851 64.801,64.835 64.774,64.500 64.667 C 63.930 64.484,63.492 64.484,63.917 64.667 M59.963 66.289 C 60.355 66.324,60.955 66.324,61.296 66.288 C 61.637 66.252,61.317 66.223,60.583 66.224 C 59.850 66.224,59.571 66.254,59.963 66.289 M96.466 66.791 C 97.227 66.822,98.427 66.822,99.133 66.790 C 99.839 66.759,99.217 66.734,97.750 66.734 C 96.283 66.734,95.706 66.760,96.466 66.791 M92.296 70.122 C 92.688 70.157,93.288 70.157,93.629 70.121 C 93.971 70.085,93.650 70.057,92.917 70.057 C 92.183 70.058,91.904 70.087,92.296 70.122 M89.042 70.286 C 89.294 70.324,89.706 70.324,89.958 70.286 C 90.210 70.248,90.004 70.217,89.500 70.217 C 88.996 70.217,88.790 70.248,89.042 70.286 M95.127 70.285 C 95.334 70.324,95.634 70.323,95.794 70.281 C 95.953 70.239,95.783 70.207,95.417 70.209 C 95.050 70.211,94.920 70.245,95.127 70.285 M85.208 70.782 C 85.369 70.823,85.631 70.823,85.792 70.782 C 85.952 70.740,85.821 70.705,85.500 70.705 C 85.179 70.705,85.048 70.740,85.208 70.782 M83.000 71.167 C 82.657 71.277,82.642 71.303,82.917 71.314 C 83.100 71.322,83.362 71.256,83.500 71.167 C 83.792 70.978,83.589 70.978,83.000 71.167 M103.833 72.096 C 103.833 72.209,104.699 72.523,104.782 72.441 C 104.819 72.403,104.622 72.292,104.342 72.195 C 104.062 72.097,103.833 72.053,103.833 72.096 M37.695 74.158 C 37.597 74.438,37.553 74.667,37.596 74.667 C 37.709 74.667,38.023 73.801,37.941 73.718 C 37.903 73.681,37.792 73.878,37.695 74.158 M33.705 74.333 C 33.705 74.654,33.740 74.785,33.782 74.625 C 33.823 74.465,33.823 74.202,33.782 74.042 C 33.740 73.881,33.705 74.012,33.705 74.333 M49.271 74.423 C 49.213 74.572,49.173 74.819,49.181 74.972 C 49.189 75.125,49.261 75.029,49.342 74.758 C 49.499 74.232,49.444 73.972,49.271 74.423 M44.195 75.361 C 44.179 75.698,44.124 76.110,44.071 76.278 C 43.980 76.566,43.986 76.566,44.164 76.289 C 44.268 76.127,44.324 75.714,44.288 75.372 L 44.223 74.750 44.195 75.361 M48.888 77.583 C 48.889 78.225,48.919 78.467,48.955 78.121 C 48.991 77.775,48.990 77.250,48.954 76.955 C 48.917 76.659,48.887 76.942,48.888 77.583 M49.081 80.000 C 49.148 80.321,49.266 80.652,49.345 80.736 C 49.424 80.820,49.408 80.595,49.310 80.236 C 49.082 79.400,48.924 79.237,49.081 80.000 M44.209 80.417 C 44.211 80.783,44.245 80.914,44.285 80.706 C 44.324 80.499,44.323 80.199,44.281 80.040 C 44.239 79.880,44.207 80.050,44.209 80.417 M33.225 81.667 C 33.225 82.446,33.254 82.765,33.289 82.375 C 33.324 81.985,33.324 81.348,33.289 80.958 C 33.254 80.569,33.225 80.887,33.225 81.667 M112.000 81.719 C 112.000 81.748,112.244 81.991,112.542 82.260 L 113.083 82.750 112.594 82.208 C 112.138 81.703,112.000 81.590,112.000 81.719 M35.728 83.833 C 35.728 84.796,35.756 85.190,35.790 84.708 C 35.823 84.227,35.823 83.440,35.790 82.958 C 35.756 82.477,35.728 82.871,35.728 83.833 M54.211 85.286 C 54.464 85.325,54.839 85.324,55.044 85.284 C 55.249 85.244,55.042 85.213,54.583 85.214 C 54.125 85.216,53.957 85.248,54.211 85.286 M33.709 87.917 C 33.711 88.283,33.745 88.414,33.785 88.206 C 33.824 87.999,33.823 87.699,33.781 87.540 C 33.739 87.380,33.707 87.550,33.709 87.917 M119.050 92.167 C 119.050 92.671,119.081 92.877,119.119 92.625 C 119.158 92.373,119.158 91.960,119.119 91.708 C 119.081 91.456,119.050 91.662,119.050 92.167 M50.583 92.833 C 51.220 93.475,51.779 94.000,51.824 94.000 C 51.870 94.000,51.387 93.475,50.750 92.833 C 50.113 92.192,49.555 91.667,49.509 91.667 C 49.463 91.667,49.947 92.192,50.583 92.833 M34.528 92.833 C 34.537 93.266,34.799 93.978,34.805 93.583 C 34.808 93.400,34.745 93.100,34.667 92.917 C 34.579 92.712,34.525 92.680,34.528 92.833 M119.053 94.500 C 119.053 95.096,119.084 95.340,119.121 95.042 C 119.158 94.744,119.158 94.256,119.121 93.958 C 119.084 93.660,119.053 93.904,119.053 94.500 M52.779 94.680 C 52.986 94.930,54.000 95.568,54.000 95.448 C 54.000 95.409,53.681 95.167,53.292 94.910 C 52.902 94.654,52.671 94.550,52.779 94.680 M113.906 95.375 L 113.417 95.917 113.958 95.427 C 114.256 95.158,114.500 94.914,114.500 94.885 C 114.500 94.757,114.362 94.870,113.906 95.375 M40.917 97.000 C 41.368 97.458,41.775 97.833,41.821 97.833 C 41.867 97.833,41.535 97.458,41.083 97.000 C 40.632 96.542,40.225 96.167,40.179 96.167 C 40.133 96.167,40.465 96.542,40.917 97.000 M57.000 97.056 C 57.000 97.099,57.242 97.218,57.538 97.322 C 57.834 97.425,58.002 97.440,57.913 97.357 C 57.723 97.179,57.000 96.941,57.000 97.056 M77.750 97.256 C 77.331 97.458,77.318 97.480,77.667 97.396 C 77.896 97.341,78.155 97.229,78.242 97.148 C 78.458 96.946,78.339 96.972,77.750 97.256 M63.627 98.785 C 63.834 98.824,64.134 98.823,64.294 98.781 C 64.453 98.739,64.283 98.707,63.917 98.709 C 63.550 98.711,63.420 98.745,63.627 98.785 M71.294 98.785 C 71.501 98.824,71.801 98.823,71.960 98.781 C 72.120 98.739,71.950 98.707,71.583 98.709 C 71.217 98.711,71.086 98.745,71.294 98.785 M98.667 103.167 C 98.323 103.277,98.309 103.303,98.583 103.314 C 98.767 103.322,99.029 103.256,99.167 103.167 C 99.459 102.978,99.256 102.978,98.667 103.167 M96.750 103.667 C 96.540 103.757,96.509 103.810,96.667 103.810 C 96.804 103.810,97.067 103.745,97.250 103.667 C 97.460 103.576,97.491 103.523,97.333 103.523 C 97.196 103.523,96.933 103.588,96.750 103.667 M91.375 104.782 C 91.535 104.823,91.798 104.823,91.958 104.782 C 92.119 104.740,91.987 104.705,91.667 104.705 C 91.346 104.705,91.215 104.740,91.375 104.782 M88.250 105.167 L 87.583 105.286 88.167 105.293 C 88.487 105.297,88.938 105.240,89.167 105.167 C 89.702 104.995,89.208 104.995,88.250 105.167 M84.250 105.667 L 83.417 105.781 84.167 105.805 C 84.579 105.818,85.029 105.756,85.167 105.667 C 85.304 105.578,85.342 105.516,85.250 105.529 C 85.158 105.542,84.708 105.604,84.250 105.667 M81.460 105.951 C 81.668 105.991,81.968 105.990,82.127 105.948 C 82.286 105.906,82.117 105.874,81.750 105.875 C 81.383 105.877,81.253 105.911,81.460 105.951 M76.583 106.167 L 74.750 106.267 76.417 106.284 C 77.333 106.293,78.496 106.243,79.000 106.174 C 80.163 106.013,79.421 106.011,76.583 106.167 M62.542 106.286 C 62.794 106.324,63.206 106.324,63.458 106.286 C 63.710 106.248,63.504 106.217,63.000 106.217 C 62.496 106.217,62.290 106.248,62.542 106.286 M64.542 106.453 C 64.794 106.491,65.206 106.491,65.458 106.453 C 65.710 106.415,65.504 106.383,65.000 106.383 C 64.496 106.383,64.290 106.415,64.542 106.453 M71.631 106.456 C 72.115 106.490,72.865 106.490,73.297 106.456 C 73.730 106.421,73.333 106.394,72.417 106.394 C 71.500 106.395,71.146 106.423,71.631 106.456 M112.667 111.000 C 112.376 111.367,112.176 111.667,112.222 111.667 C 112.268 111.667,112.543 111.367,112.833 111.000 C 113.124 110.633,113.324 110.333,113.278 110.333 C 113.232 110.333,112.957 110.633,112.667 111.000 M109.247 114.875 L 107.583 116.583 109.292 114.920 C 110.231 114.005,111.000 113.236,111.000 113.211 C 111.000 113.091,110.792 113.288,109.247 114.875 M48.917 119.333 C 49.368 119.792,49.775 120.167,49.821 120.167 C 49.867 120.167,49.535 119.792,49.083 119.333 C 48.632 118.875,48.225 118.500,48.179 118.500 C 48.133 118.500,48.465 118.875,48.917 119.333 M77.375 128.115 C 77.535 128.157,77.798 128.157,77.958 128.115 C 78.119 128.073,77.987 128.039,77.667 128.039 C 77.346 128.039,77.215 128.073,77.375 128.115 M68.795 128.287 C 69.094 128.325,69.544 128.324,69.795 128.286 C 70.045 128.248,69.800 128.217,69.250 128.218 C 68.700 128.219,68.495 128.250,68.795 128.287 M74.292 128.290 C 74.773 128.323,75.560 128.323,76.042 128.290 C 76.523 128.256,76.129 128.228,75.167 128.228 C 74.204 128.228,73.810 128.256,74.292 128.290 M71.042 128.456 C 71.477 128.490,72.190 128.490,72.625 128.456 C 73.060 128.422,72.704 128.393,71.833 128.393 C 70.962 128.393,70.606 128.422,71.042 128.456 " stroke="none" fill="#7c7c7c" fill-rule="evenodd"/><path id="path3" d="M126.667 31.333 C 126.667 31.425,126.779 31.500,126.917 31.500 C 127.054 31.500,127.167 31.425,127.167 31.333 C 127.167 31.242,127.054 31.167,126.917 31.167 C 126.779 31.167,126.667 31.242,126.667 31.333 M68.958 40.118 C 69.165 40.157,69.502 40.157,69.708 40.118 C 69.915 40.078,69.746 40.045,69.333 40.045 C 68.921 40.045,68.752 40.078,68.958 40.118 M76.208 40.115 C 76.369 40.157,76.631 40.157,76.792 40.115 C 76.952 40.073,76.821 40.039,76.500 40.039 C 76.179 40.039,76.048 40.073,76.208 40.115 M66.627 40.285 C 66.834 40.324,67.134 40.323,67.294 40.281 C 67.453 40.239,67.283 40.207,66.917 40.209 C 66.550 40.211,66.420 40.245,66.627 40.285 M78.208 40.282 C 78.369 40.323,78.631 40.323,78.792 40.282 C 78.952 40.240,78.821 40.205,78.500 40.205 C 78.179 40.205,78.048 40.240,78.208 40.282 M81.667 40.833 C 82.237 41.016,82.675 41.016,82.250 40.833 C 82.067 40.755,81.767 40.692,81.583 40.695 C 81.315 40.699,81.332 40.726,81.667 40.833 M60.417 41.333 C 60.207 41.424,60.176 41.477,60.333 41.477 C 60.471 41.477,60.733 41.412,60.917 41.333 C 61.127 41.243,61.158 41.190,61.000 41.190 C 60.862 41.190,60.600 41.255,60.417 41.333 M120.186 45.861 C 120.175 46.014,120.124 46.277,120.071 46.445 C 119.980 46.734,119.985 46.735,120.165 46.453 C 120.270 46.290,120.322 46.027,120.281 45.870 C 120.213 45.612,120.203 45.611,120.186 45.861 M46.990 48.013 L 46.083 48.859 47.042 48.064 C 47.921 47.335,48.091 47.167,47.948 47.167 C 47.920 47.167,47.489 47.547,46.990 48.013 M115.494 50.125 L 114.583 51.083 115.542 50.172 C 116.432 49.326,116.576 49.167,116.453 49.167 C 116.427 49.167,115.995 49.598,115.494 50.125 M44.406 50.542 L 43.917 51.083 44.458 50.594 C 44.963 50.138,45.077 50.000,44.948 50.000 C 44.919 50.000,44.675 50.244,44.406 50.542 M55.625 57.284 C 55.831 57.324,56.169 57.324,56.375 57.284 C 56.581 57.245,56.413 57.212,56.000 57.212 C 55.587 57.212,55.419 57.245,55.625 57.284 M59.128 57.287 C 59.428 57.325,59.878 57.324,60.128 57.286 C 60.378 57.248,60.133 57.217,59.583 57.218 C 59.033 57.219,58.828 57.250,59.128 57.287 M53.083 57.667 C 52.873 57.757,52.842 57.810,53.000 57.810 C 53.137 57.810,53.400 57.745,53.583 57.667 C 53.793 57.576,53.824 57.523,53.667 57.523 C 53.529 57.523,53.267 57.588,53.083 57.667 M63.083 57.667 C 63.267 57.745,63.567 57.808,63.750 57.805 C 64.018 57.801,64.002 57.774,63.667 57.667 C 63.097 57.484,62.659 57.484,63.083 57.667 M111.994 61.125 L 111.083 62.083 112.042 61.172 C 112.932 60.326,113.076 60.167,112.953 60.167 C 112.927 60.167,112.495 60.598,111.994 61.125 M43.740 63.542 L 43.250 64.083 43.792 63.594 C 44.090 63.325,44.333 63.081,44.333 63.052 C 44.333 62.923,44.196 63.037,43.740 63.542 M56.460 64.118 C 56.668 64.158,56.968 64.156,57.127 64.115 C 57.286 64.073,57.117 64.040,56.750 64.042 C 56.383 64.044,56.253 64.078,56.460 64.118 M60.208 64.115 C 60.369 64.157,60.631 64.157,60.792 64.115 C 60.952 64.073,60.821 64.039,60.500 64.039 C 60.179 64.039,60.048 64.073,60.208 64.115 M90.833 66.167 C 91.063 66.240,91.400 66.300,91.583 66.300 C 91.847 66.300,91.830 66.272,91.500 66.167 C 91.271 66.093,90.933 66.033,90.750 66.033 C 90.486 66.033,90.503 66.061,90.833 66.167 M59.963 66.456 C 60.355 66.491,60.955 66.490,61.296 66.454 C 61.637 66.419,61.317 66.390,60.583 66.390 C 59.850 66.391,59.571 66.420,59.963 66.456 M57.417 66.667 C 56.992 66.849,57.430 66.849,58.000 66.667 C 58.335 66.559,58.351 66.532,58.083 66.528 C 57.900 66.526,57.600 66.588,57.417 66.667 M63.167 66.667 C 63.396 66.740,63.733 66.800,63.917 66.800 C 64.181 66.800,64.163 66.772,63.833 66.667 C 63.604 66.593,63.267 66.533,63.083 66.533 C 62.819 66.533,62.837 66.561,63.167 66.667 M100.833 66.667 C 100.503 66.772,100.486 66.800,100.750 66.800 C 100.933 66.800,101.271 66.740,101.500 66.667 C 101.830 66.561,101.847 66.533,101.583 66.533 C 101.400 66.533,101.063 66.593,100.833 66.667 M96.875 66.956 C 97.402 66.990,98.265 66.990,98.792 66.956 C 99.319 66.923,98.888 66.896,97.833 66.896 C 96.779 66.896,96.348 66.923,96.875 66.956 M89.460 70.118 C 89.668 70.158,89.968 70.156,90.127 70.115 C 90.286 70.073,90.117 70.040,89.750 70.042 C 89.383 70.044,89.253 70.078,89.460 70.118 M87.083 70.333 C 86.637 70.447,86.628 70.461,87.000 70.461 C 87.229 70.461,87.642 70.403,87.917 70.333 C 88.363 70.220,88.372 70.206,88.000 70.206 C 87.771 70.206,87.358 70.263,87.083 70.333 M99.917 70.833 C 100.100 70.912,100.362 70.977,100.500 70.977 C 100.658 70.977,100.627 70.924,100.417 70.833 C 100.233 70.755,99.971 70.690,99.833 70.690 C 99.676 70.690,99.707 70.743,99.917 70.833 M33.771 72.854 C 33.632 73.549,33.767 73.684,33.917 73.000 C 33.980 72.712,33.997 72.441,33.955 72.399 C 33.912 72.357,33.829 72.561,33.771 72.854 M33.385 76.583 C 33.386 77.133,33.417 77.338,33.454 77.039 C 33.491 76.739,33.490 76.289,33.452 76.039 C 33.414 75.788,33.384 76.033,33.385 76.583 M36.595 77.929 C 36.534 78.173,36.516 78.405,36.555 78.444 C 36.594 78.483,36.677 78.316,36.738 78.071 C 36.799 77.827,36.817 77.595,36.778 77.556 C 36.739 77.517,36.657 77.684,36.595 77.929 M33.221 78.750 C 33.222 79.392,33.252 79.634,33.288 79.288 C 33.324 78.942,33.324 78.417,33.287 78.121 C 33.250 77.825,33.221 78.108,33.221 78.750 M106.750 80.150 C 106.469 80.212,106.957 80.258,107.867 80.255 C 108.756 80.252,109.356 80.199,109.200 80.137 C 108.846 79.995,107.415 80.003,106.750 80.150 M44.190 81.167 C 44.190 81.304,44.255 81.567,44.333 81.750 C 44.424 81.960,44.477 81.991,44.477 81.833 C 44.477 81.696,44.412 81.433,44.333 81.250 C 44.243 81.040,44.190 81.009,44.190 81.167 M35.892 84.167 C 35.892 84.946,35.920 85.265,35.955 84.875 C 35.990 84.485,35.990 83.848,35.955 83.458 C 35.920 83.069,35.892 83.387,35.892 84.167 M50.667 83.219 C 50.667 83.248,50.910 83.491,51.208 83.760 L 51.750 84.250 51.260 83.708 C 50.804 83.203,50.667 83.090,50.667 83.219 M33.205 83.833 C 33.205 84.154,33.240 84.285,33.282 84.125 C 33.323 83.965,33.323 83.702,33.282 83.542 C 33.240 83.381,33.205 83.512,33.205 83.833 M98.884 84.429 L 98.417 84.858 98.958 84.481 C 99.256 84.274,99.500 84.081,99.500 84.052 C 99.500 83.920,99.316 84.033,98.884 84.429 M33.375 85.917 C 33.377 86.283,33.411 86.414,33.451 86.206 C 33.491 85.999,33.490 85.699,33.448 85.540 C 33.406 85.380,33.374 85.550,33.375 85.917 M96.083 86.431 L 95.583 86.861 96.125 86.502 C 96.423 86.305,96.667 86.112,96.667 86.072 C 96.667 85.947,96.596 85.991,96.083 86.431 M119.127 92.667 C 119.163 94.087,119.218 95.325,119.249 95.417 C 119.367 95.756,119.310 91.393,119.189 90.750 C 119.119 90.382,119.092 91.240,119.127 92.667 M50.250 92.667 C 50.608 93.033,50.938 93.333,50.984 93.333 C 51.030 93.333,50.775 93.033,50.417 92.667 C 50.059 92.300,49.728 92.000,49.682 92.000 C 49.637 92.000,49.892 92.300,50.250 92.667 M119.039 96.167 C 119.039 96.487,119.073 96.619,119.115 96.458 C 119.157 96.298,119.157 96.035,119.115 95.875 C 119.073 95.715,119.039 95.846,119.039 96.167 M40.000 95.879 C 40.000 95.904,40.581 96.486,41.292 97.171 L 42.583 98.417 41.338 97.125 C 40.180 95.925,40.000 95.757,40.000 95.879 M75.083 98.167 C 74.873 98.257,74.842 98.310,75.000 98.310 C 75.137 98.310,75.400 98.245,75.583 98.167 C 75.793 98.076,75.824 98.023,75.667 98.023 C 75.529 98.023,75.267 98.088,75.083 98.167 M118.595 98.929 C 118.534 99.173,118.516 99.405,118.555 99.444 C 118.594 99.483,118.677 99.316,118.738 99.071 C 118.799 98.827,118.817 98.595,118.778 98.556 C 118.739 98.517,118.657 98.684,118.595 98.929 M66.534 99.123 C 67.149 99.155,68.199 99.156,68.868 99.124 C 69.536 99.092,69.033 99.066,67.750 99.066 C 66.467 99.065,65.920 99.091,66.534 99.123 M37.178 101.750 C 37.178 101.842,37.286 102.104,37.417 102.333 C 37.548 102.563,37.655 102.675,37.655 102.583 C 37.655 102.492,37.548 102.229,37.417 102.000 C 37.286 101.771,37.178 101.658,37.178 101.750 M95.500 103.833 C 95.165 103.941,95.149 103.968,95.417 103.972 C 95.600 103.974,95.900 103.912,96.083 103.833 C 96.508 103.651,96.070 103.651,95.500 103.833 M57.583 105.333 C 57.767 105.412,58.067 105.474,58.250 105.472 C 58.518 105.468,58.502 105.441,58.167 105.333 C 57.597 105.151,57.159 105.151,57.583 105.333 M86.602 105.303 C 86.556 105.378,86.739 105.407,87.009 105.368 C 87.279 105.328,87.500 105.267,87.500 105.231 C 87.500 105.104,86.685 105.170,86.602 105.303 M59.875 105.782 C 60.035 105.823,60.298 105.823,60.458 105.782 C 60.619 105.740,60.487 105.705,60.167 105.705 C 59.846 105.705,59.715 105.740,59.875 105.782 M81.625 105.787 C 81.923 105.824,82.410 105.824,82.708 105.787 C 83.006 105.750,82.762 105.720,82.167 105.720 C 81.571 105.720,81.327 105.750,81.625 105.787 M80.127 105.951 C 80.334 105.991,80.634 105.990,80.794 105.948 C 80.953 105.906,80.783 105.874,80.417 105.875 C 80.050 105.877,79.920 105.911,80.127 105.951 M77.042 106.119 C 77.294 106.158,77.706 106.158,77.958 106.119 C 78.210 106.081,78.004 106.050,77.500 106.050 C 76.996 106.050,76.790 106.081,77.042 106.119 M65.083 106.340 C 66.307 106.464,70.606 106.544,70.486 106.440 C 70.448 106.407,68.954 106.344,67.167 106.301 C 65.379 106.257,64.442 106.275,65.083 106.340 M71.632 106.290 C 72.208 106.323,73.108 106.323,73.632 106.290 C 74.155 106.257,73.683 106.230,72.583 106.230 C 71.483 106.231,71.055 106.258,71.632 106.290 M41.479 110.083 C 41.569 110.267,41.764 110.567,41.914 110.750 L 42.185 111.083 42.021 110.750 C 41.931 110.567,41.736 110.267,41.586 110.083 L 41.315 109.750 41.479 110.083 M43.000 112.417 C 43.284 112.829,43.554 113.167,43.599 113.167 C 43.645 113.167,43.450 112.829,43.167 112.417 C 42.883 112.004,42.613 111.667,42.567 111.667 C 42.521 111.667,42.716 112.004,43.000 112.417 M109.163 115.125 L 107.583 116.750 109.208 115.170 C 110.718 113.702,110.909 113.500,110.788 113.500 C 110.764 113.500,110.032 114.231,109.163 115.125 M47.917 118.500 C 48.646 119.233,49.280 119.833,49.326 119.833 C 49.371 119.833,48.812 119.233,48.083 118.500 C 47.354 117.767,46.720 117.167,46.674 117.167 C 46.629 117.167,47.188 117.767,47.917 118.500 M105.573 118.375 L 105.083 118.917 105.625 118.427 C 105.923 118.158,106.167 117.914,106.167 117.885 C 106.167 117.757,106.029 117.870,105.573 118.375 M51.833 121.894 C 51.833 121.940,52.058 122.138,52.333 122.333 C 52.608 122.529,52.833 122.652,52.833 122.606 C 52.833 122.560,52.608 122.362,52.333 122.167 C 52.058 121.971,51.833 121.848,51.833 121.894 M85.083 127.167 C 84.873 127.257,84.842 127.310,85.000 127.310 C 85.137 127.310,85.400 127.245,85.583 127.167 C 85.793 127.076,85.824 127.023,85.667 127.023 C 85.529 127.023,85.267 127.088,85.083 127.167 M81.542 127.782 C 81.702 127.823,81.965 127.823,82.125 127.782 C 82.285 127.740,82.154 127.705,81.833 127.705 C 81.512 127.705,81.381 127.740,81.542 127.782 M78.625 128.118 C 78.831 128.157,79.169 128.157,79.375 128.118 C 79.581 128.078,79.412 128.045,79.000 128.045 C 78.587 128.045,78.419 128.078,78.625 128.118 M77.294 128.285 C 77.501 128.324,77.801 128.323,77.960 128.281 C 78.120 128.239,77.950 128.207,77.583 128.209 C 77.217 128.211,77.086 128.245,77.294 128.285 M69.294 128.451 C 69.501 128.491,69.801 128.490,69.960 128.448 C 70.120 128.406,69.950 128.374,69.583 128.375 C 69.217 128.377,69.086 128.411,69.294 128.451 M74.129 128.456 C 74.521 128.491,75.121 128.490,75.463 128.454 C 75.804 128.419,75.483 128.390,74.750 128.390 C 74.017 128.391,73.737 128.420,74.129 128.456 " stroke="none" fill="#a1a1a1" fill-rule="evenodd"/><path id="path4" d="M45.491 49.458 L 44.917 50.083 45.542 49.509 C 45.885 49.193,46.167 48.912,46.167 48.884 C 46.167 48.757,46.026 48.877,45.491 49.458 M57.464 57.123 C 57.948 57.157,58.698 57.156,59.131 57.122 C 59.563 57.088,59.167 57.060,58.250 57.061 C 57.333 57.061,56.980 57.089,57.464 57.123 M90.625 70.118 C 90.831 70.157,91.169 70.157,91.375 70.118 C 91.581 70.078,91.412 70.045,91.000 70.045 C 90.587 70.045,90.419 70.078,90.625 70.118 " stroke="none" fill="#848484" fill-rule="evenodd"/></g></svg>